<svg width="2432" height="831" viewBox="0 0 2432 831" fill="none" xmlns="http://www.w3.org/2000/svg">
<path d="M335 363H439V501H335L335 363Z" fill="#D2D2D2"/>
<path d="M309 596.5C309 549.5 342 532 367.5 519H406V538.5C406 546.5 394.259 553.465 389.5 555C374 560 353.149 575.342 354.5 596.5C355.759 616.208 369.751 633 389.5 633C435.5 633 423.994 591.791 450 569.5C457 563.5 469 564.5 469 572.5V596.5C469 633 433.407 676 389.5 676C345.593 676 309 643.5 309 596.5Z" fill="#D2D2D2"/>
<path fill-rule="evenodd" clip-rule="evenodd" d="M160 152L160 606L241 658V295L387 394L536 295V658L611 606V152L387 301L160 152Z" fill="#D9D9D9"/>
<path fill-rule="evenodd" clip-rule="evenodd" d="M160 152L160 606L241 658V295L387 394L536 295V658L611 606V152L387 301L160 152Z" fill="#931B1E"/>
<path fill-rule="evenodd" clip-rule="evenodd" d="M160 152L160 606L241 658V295L387 394L536 295V658L611 606V152L387 301L160 152Z" stroke="#931B1E" stroke-width="20"/>
<path d="M442 424C450.284 424 457 430.716 457 439V483.287C457 487.265 455.419 491.081 452.606 493.894L431.894 514.606C429.081 517.419 425.265 519 421.287 519H353.293C349.565 519 345.971 517.612 343.211 515.106L319.918 493.965C316.786 491.122 315 487.088 315 482.857V439C315 430.716 321.716 424 330 424H442ZM387 447C375.954 447 367 455.954 367 467C367 478.046 375.954 487 387 487C398.046 487 407 478.046 407 467C407 455.954 398.046 447 387 447Z" fill="#F0F0F0"/>
<path d="M710.936 537L717.236 172.5H786.086L837.836 424.95L891.836 172.5H958.436L965.186 537H915.686L910.286 283.65L858.536 537H818.486L765.836 282.75L760.886 537H710.936ZM1000.56 537L1073.46 172.5H1144.56L1217.46 537H1155.81L1141.41 452.85H1077.96L1063.11 537H1000.56ZM1084.71 410.55H1134.21L1109.46 257.55L1084.71 410.55ZM1254.12 537V172.5H1300.47L1389.12 380.4V172.5H1444.02V537H1399.92L1310.82 319.2V537H1254.12ZM1597.44 541.95C1570.74 541.95 1549.74 536.7 1534.44 526.2C1519.44 515.7 1508.94 501.45 1502.94 483.45C1496.94 465.15 1493.94 444.15 1493.94 420.45V290.4C1493.94 265.5 1496.94 243.9 1502.94 225.6C1508.94 207.3 1519.44 193.2 1534.44 183.3C1549.74 173.4 1570.74 168.45 1597.44 168.45C1622.64 168.45 1642.29 172.8 1656.39 181.5C1670.79 189.9 1680.99 202.05 1686.99 217.95C1692.99 233.85 1695.99 252.3 1695.99 273.3V303.9H1632.09V272.4C1632.09 262.2 1631.49 252.9 1630.29 244.5C1629.39 236.1 1626.54 229.5 1621.74 224.7C1617.24 219.6 1609.29 217.05 1597.89 217.05C1586.49 217.05 1578.09 219.75 1572.69 225.15C1567.59 230.25 1564.29 237.3 1562.79 246.3C1561.29 255 1560.54 264.9 1560.54 276V434.4C1560.54 447.6 1561.59 458.55 1563.69 467.25C1565.79 475.65 1569.54 482.1 1574.94 486.6C1580.64 490.8 1588.29 492.9 1597.89 492.9C1608.99 492.9 1616.79 490.35 1621.29 485.25C1626.09 479.85 1629.09 472.8 1630.29 464.1C1631.49 455.4 1632.09 445.65 1632.09 434.85V402H1695.99V431.25C1695.99 452.85 1693.14 472.05 1687.44 488.85C1681.74 505.35 1671.69 518.4 1657.29 528C1643.19 537.3 1623.24 541.95 1597.44 541.95ZM1744.15 537V172.5H1809.85V537H1744.15ZM1866.28 537V172.5H1973.38C1995.28 172.5 2012.98 176.55 2026.48 184.65C2040.28 192.75 2050.33 204.6 2056.63 220.2C2063.23 235.5 2066.53 254.1 2066.53 276C2066.53 299.7 2062.48 318.9 2054.38 333.6C2046.28 348 2034.88 358.5 2020.18 365.1C2005.78 371.7 1988.68 375 1968.88 375H1932.88V537H1866.28ZM1932.88 328.2H1958.08C1970.08 328.2 1979.38 326.55 1985.98 323.25C1992.88 319.65 1997.53 314.1 1999.93 306.6C2002.63 298.8 2003.98 288.45 2003.98 275.55C2003.98 262.35 2002.93 251.7 2000.83 243.6C1999.03 235.2 1994.83 229.05 1988.23 225.15C1981.93 221.25 1971.88 219.3 1958.08 219.3H1932.88V328.2ZM2103.58 537V172.5H2256.58V219.3H2170.18V324.15H2238.13V370.5H2170.18V491.1H2257.48V537H2103.58Z" fill="#F0F0F0"/>
<path d="M726.194 669H711.674V586.72H726.194V669ZM748.895 669V586.72H762.205C768.578 595.029 774.628 603.821 780.355 613.098C786.083 622.294 791.286 631.772 795.964 641.533L794.875 616.97V586.72H808.79V669H795.48C790.318 658.836 784.953 648.632 779.387 638.387C773.902 628.062 768.054 618.341 761.842 609.226L762.81 637.54V669H748.895ZM885.942 663.676C883.926 664.886 880.578 666.298 875.899 667.911C871.301 669.444 865.896 670.21 859.685 670.21C852.667 670.21 846.778 668.758 842.019 665.854C837.34 662.95 833.791 658.957 831.371 653.875C828.951 648.793 827.741 642.985 827.741 636.451V619.148C827.741 612.453 828.951 606.604 831.371 601.603C833.791 596.521 837.381 592.568 842.14 589.745C846.98 586.922 853.03 585.51 860.29 585.51C863.839 585.51 867.51 585.913 871.301 586.72C875.093 587.446 879.247 588.817 883.764 590.834L879.287 603.539C875.335 602.006 871.906 600.917 869.002 600.272C866.179 599.546 863.355 599.183 860.532 599.183C854.24 599.183 849.682 600.998 846.859 604.628C844.036 608.177 842.624 613.017 842.624 619.148V636.451C842.624 642.259 844.036 647.018 846.859 650.729C849.763 654.44 854.28 656.295 860.411 656.295C862.266 656.295 864.283 656.134 866.461 655.811C868.639 655.488 870.737 655.045 872.753 654.48V636.451H859.443V623.746H885.942V663.676ZM952.073 655.085V669H904.399V586.72H950.863V600.635H918.919V620.358H947.233V634.273H918.919V655.085H952.073ZM969.271 669V586.72H982.581C988.954 595.029 995.004 603.821 1000.73 613.098C1006.46 622.294 1011.66 631.772 1016.34 641.533L1015.25 616.97V586.72H1029.17V669H1015.86C1010.69 658.836 1005.33 648.632 999.763 638.387C994.278 628.062 988.43 618.341 982.218 609.226L983.186 637.54V669H969.271ZM1066.39 669H1051.87V586.72H1066.39V669ZM1136.76 655.085V669H1089.09V586.72H1135.55V600.635H1103.61V620.358H1131.92V634.273H1103.61V655.085H1136.76ZM1168.48 638.75V669H1153.96V586.72H1181.43C1189.74 586.72 1196.11 588.858 1200.55 593.133C1205.06 597.328 1207.32 602.974 1207.32 610.073V615.276C1207.32 619.955 1206.31 624.069 1204.3 627.618C1202.28 631.167 1199.38 633.87 1195.59 635.725C1202.2 647.018 1207.85 658.11 1212.53 669H1195.95C1191.92 658.917 1187.12 648.833 1181.55 638.75H1168.48ZM1181.43 600.03H1168.48V625.44H1181.43C1184.98 625.44 1187.68 624.553 1189.54 622.778C1191.47 620.923 1192.44 618.422 1192.44 615.276V610.073C1192.44 607.008 1191.47 604.588 1189.54 602.813C1187.68 600.958 1184.98 600.03 1181.43 600.03ZM1242.22 669H1227.7V586.72H1242.22V669ZM1241.13 578.008H1228.91L1240.52 557.922L1253.59 563.488L1241.13 578.008ZM1308.72 669L1303.64 652.907H1275.44L1270.36 669H1255.96L1283.43 586.72H1296.26L1323.84 669H1308.72ZM1283.31 627.739L1279.56 639.597H1299.4L1295.65 627.739L1289.6 606.927L1283.31 627.739ZM1379.12 657.384C1382.34 657.384 1385 656.618 1387.1 655.085C1389.2 653.552 1390.49 651.495 1390.97 648.914C1391.46 646.252 1390.85 643.308 1389.16 640.081L1400.29 633.305L1418.68 669H1403.56L1398.23 657.021C1397.1 660.893 1394.76 664.079 1391.22 666.58C1387.75 669 1383.27 670.21 1377.78 670.21C1370.61 670.21 1364.96 668.193 1360.84 664.16C1356.81 660.127 1354.79 654.924 1354.79 648.551C1354.79 644.034 1355.96 639.799 1358.3 635.846C1360.72 631.893 1364.8 628.062 1370.52 624.351C1366.57 621.286 1363.71 618.22 1361.93 615.155C1360.16 612.009 1359.27 608.661 1359.27 605.112C1359.27 601.482 1360.12 598.175 1361.81 595.19C1363.51 592.205 1365.97 589.866 1369.19 588.172C1372.5 586.397 1376.53 585.51 1381.29 585.51C1388.15 585.51 1393.6 587.285 1397.63 590.834C1401.66 594.383 1403.68 599.304 1403.68 605.596C1403.68 609.387 1402.91 612.654 1401.38 615.397C1399.93 618.14 1397.91 620.64 1395.33 622.899C1392.75 625.077 1389.72 627.255 1386.25 629.433L1377.78 634.878C1374.15 637.217 1371.77 639.476 1370.65 641.654C1369.52 643.832 1368.95 645.929 1368.95 647.946C1368.95 651.173 1369.88 653.552 1371.73 655.085C1373.67 656.618 1376.13 657.384 1379.12 657.384ZM1372.7 605.838C1372.7 607.613 1373.19 609.589 1374.15 611.767C1375.2 613.945 1376.98 616.163 1379.48 618.422C1382.3 616.567 1384.44 615.034 1385.89 613.824C1387.34 612.533 1388.35 611.323 1388.92 610.194C1389.48 609.065 1389.76 607.814 1389.76 606.443C1389.76 603.539 1388.96 601.442 1387.34 600.151C1385.73 598.78 1383.75 598.094 1381.41 598.094C1378.99 598.094 1376.94 598.739 1375.24 600.03C1373.55 601.321 1372.7 603.257 1372.7 605.838ZM1464.99 636.451C1464.99 642.34 1466.28 647.18 1468.87 650.971C1471.45 654.682 1475.68 656.537 1481.57 656.537C1483.99 656.537 1486.49 656.214 1489.07 655.569C1491.74 654.924 1495 653.835 1498.87 652.302L1503.35 664.886C1499 666.822 1494.96 668.193 1491.25 669C1487.62 669.807 1484.11 670.21 1480.72 670.21C1473.95 670.21 1468.26 668.758 1463.66 665.854C1459.15 662.95 1455.76 658.957 1453.5 653.875C1451.24 648.793 1450.11 642.985 1450.11 636.451V619.148C1450.11 612.614 1451.24 606.806 1453.5 601.724C1455.76 596.642 1459.15 592.689 1463.66 589.866C1468.26 586.962 1473.95 585.51 1480.72 585.51C1484.03 585.51 1487.46 585.913 1491.01 586.72C1494.56 587.446 1498.43 588.737 1502.63 590.592L1498.15 603.418C1494.44 601.885 1491.33 600.796 1488.83 600.151C1486.33 599.506 1483.91 599.183 1481.57 599.183C1475.68 599.183 1471.45 601.038 1468.87 604.749C1466.28 608.46 1464.99 613.259 1464.99 619.148V636.451ZM1576.11 619.148V636.451C1576.11 646.938 1573.49 655.206 1568.24 661.256C1563 667.225 1555.34 670.21 1545.25 670.21C1535.09 670.21 1527.39 667.225 1522.14 661.256C1516.98 655.206 1514.4 646.938 1514.4 636.451V619.148C1514.4 608.661 1516.98 600.433 1522.14 594.464C1527.39 588.495 1535.09 585.51 1545.25 585.51C1555.34 585.51 1563 588.495 1568.24 594.464C1573.49 600.433 1576.11 608.661 1576.11 619.148ZM1561.23 619.148C1561.23 612.533 1559.93 607.572 1557.35 604.265C1554.77 600.877 1550.74 599.183 1545.25 599.183C1539.77 599.183 1535.73 600.877 1533.15 604.265C1530.57 607.572 1529.28 612.533 1529.28 619.148V636.451C1529.28 643.066 1530.57 648.067 1533.15 651.455C1535.73 654.843 1539.77 656.537 1545.25 656.537C1550.74 656.537 1554.77 654.843 1557.35 651.455C1559.93 648.067 1561.23 643.066 1561.23 636.451V619.148ZM1595.3 669V586.72H1608.61C1614.99 595.029 1621.04 603.821 1626.76 613.098C1632.49 622.294 1637.69 631.772 1642.37 641.533L1641.28 616.97V586.72H1655.2V669H1641.89C1636.73 658.836 1631.36 648.632 1625.8 638.387C1620.31 628.062 1614.46 618.341 1608.25 609.226L1609.22 637.54V669H1595.3ZM1695.81 656.779C1705.17 656.779 1709.85 653.31 1709.85 646.373C1709.85 643.55 1709.12 641.331 1707.67 639.718C1706.3 638.105 1703.71 636.693 1699.92 635.483L1690 632.216C1678.14 628.344 1672.21 620.56 1672.21 608.863C1672.21 602.087 1674.31 596.521 1678.51 592.165C1682.78 587.728 1689.44 585.51 1698.47 585.51C1702.26 585.51 1706.01 585.954 1709.72 586.841C1713.44 587.648 1717.39 588.979 1721.58 590.834L1717.11 603.297C1713.23 601.764 1709.93 600.675 1707.18 600.03C1704.52 599.304 1701.78 598.941 1698.96 598.941C1695.24 598.941 1692.3 599.627 1690.12 600.998C1688.03 602.289 1686.98 604.668 1686.98 608.137C1686.98 610.718 1687.7 612.856 1689.15 614.55C1690.69 616.163 1693.19 617.535 1696.66 618.664L1706.58 621.931C1712.55 623.948 1717.02 626.892 1720.01 630.764C1723.07 634.555 1724.61 639.597 1724.61 645.889C1724.61 653.149 1722.31 659.038 1717.71 663.555C1713.11 667.992 1705.89 670.21 1696.05 670.21C1692.18 670.21 1688.15 669.766 1683.95 668.879C1679.84 667.911 1675.32 666.298 1670.4 664.039L1674.88 651.576C1679.39 653.512 1683.23 654.883 1686.37 655.69C1689.6 656.416 1692.74 656.779 1695.81 656.779ZM1730.73 600.635V586.72H1791.23V600.635H1768.24V669H1753.72V600.635H1730.73ZM1818.74 638.75V669H1804.22V586.72H1831.69C1839.99 586.72 1846.37 588.858 1850.8 593.133C1855.32 597.328 1857.58 602.974 1857.58 610.073V615.276C1857.58 619.955 1856.57 624.069 1854.55 627.618C1852.54 631.167 1849.63 633.87 1845.84 635.725C1852.46 647.018 1858.1 658.11 1862.78 669H1846.21C1842.17 658.917 1837.37 648.833 1831.81 638.75H1818.74ZM1831.69 600.03H1818.74V625.44H1831.69C1835.24 625.44 1837.94 624.553 1839.79 622.778C1841.73 620.923 1842.7 618.422 1842.7 615.276V610.073C1842.7 607.008 1841.73 604.588 1839.79 602.813C1837.94 600.958 1835.24 600.03 1831.69 600.03ZM1876.02 586.72H1890.9V639.476C1890.9 644.8 1892.07 648.995 1894.41 652.06C1896.75 655.045 1900.5 656.537 1905.66 656.537C1910.82 656.537 1914.58 655.045 1916.92 652.06C1919.25 648.995 1920.42 644.8 1920.42 639.476V586.72H1935.31V639.476C1935.31 648.753 1932.85 656.214 1927.93 661.861C1923.01 667.427 1915.58 670.21 1905.66 670.21C1895.66 670.21 1888.2 667.427 1883.28 661.861C1878.44 656.214 1876.02 648.753 1876.02 639.476V586.72ZM1967.31 636.451C1967.31 642.34 1968.6 647.18 1971.18 650.971C1973.76 654.682 1978 656.537 1983.89 656.537C1986.31 656.537 1988.81 656.214 1991.39 655.569C1994.05 654.924 1997.32 653.835 2001.19 652.302L2005.67 664.886C2001.31 666.822 1997.28 668.193 1993.57 669C1989.94 669.807 1986.43 670.21 1983.04 670.21C1976.26 670.21 1970.58 668.758 1965.98 665.854C1961.46 662.95 1958.07 658.957 1955.81 653.875C1953.56 648.793 1952.43 642.985 1952.43 636.451V619.148C1952.43 612.614 1953.56 606.806 1955.81 601.724C1958.07 596.642 1961.46 592.689 1965.98 589.866C1970.58 586.962 1976.26 585.51 1983.04 585.51C1986.35 585.51 1989.78 585.913 1993.32 586.72C1996.87 587.446 2000.75 588.737 2004.94 590.592L2000.46 603.418C1996.75 601.885 1993.65 600.796 1991.15 600.151C1988.65 599.506 1986.23 599.183 1983.89 599.183C1978 599.183 1973.76 601.038 1971.18 604.749C1968.6 608.46 1967.31 613.259 1967.31 619.148V636.451ZM2031.35 636.451C2031.35 642.34 2032.65 647.18 2035.23 650.971C2037.81 654.682 2042.04 656.537 2047.93 656.537C2050.35 656.537 2052.85 656.214 2055.43 655.569C2058.1 654.924 2061.36 653.835 2065.23 652.302L2069.71 664.886C2065.36 666.822 2061.32 668.193 2057.61 669C2053.98 669.807 2050.47 670.21 2047.08 670.21C2040.31 670.21 2034.62 668.758 2030.02 665.854C2025.51 662.95 2022.12 658.957 2019.86 653.875C2017.6 648.793 2016.47 642.985 2016.47 636.451V619.148C2016.47 612.614 2017.6 606.806 2019.86 601.724C2022.12 596.642 2025.51 592.689 2030.02 589.866C2034.62 586.962 2040.31 585.51 2047.08 585.51C2050.39 585.51 2053.82 585.913 2057.37 586.72C2060.92 587.446 2064.79 588.737 2068.99 590.592L2064.51 603.418C2060.8 601.885 2057.69 600.796 2055.19 600.151C2052.69 599.506 2050.27 599.183 2047.93 599.183C2042.04 599.183 2037.81 601.038 2035.23 604.749C2032.65 608.46 2031.35 613.259 2031.35 619.148V636.451ZM2099.38 669H2084.86V586.72H2099.38V669ZM2180.28 619.148V636.451C2180.28 646.938 2177.66 655.206 2172.42 661.256C2167.17 667.225 2159.51 670.21 2149.43 670.21C2139.26 670.21 2131.56 667.225 2126.32 661.256C2121.15 655.206 2118.57 646.938 2118.57 636.451V619.148C2118.57 608.661 2121.15 600.433 2126.32 594.464C2131.56 588.495 2139.26 585.51 2149.43 585.51C2159.51 585.51 2167.17 588.495 2172.42 594.464C2177.66 600.433 2180.28 608.661 2180.28 619.148ZM2165.4 619.148C2165.4 612.533 2164.11 607.572 2161.53 604.265C2158.94 600.877 2154.91 599.183 2149.43 599.183C2143.94 599.183 2139.91 600.877 2137.33 604.265C2134.74 607.572 2133.45 612.533 2133.45 619.148V636.451C2133.45 643.066 2134.74 648.067 2137.33 651.455C2139.91 654.843 2143.94 656.537 2149.43 656.537C2154.91 656.537 2158.94 654.843 2161.53 651.455C2164.11 648.067 2165.4 643.066 2165.4 636.451V619.148ZM2155.6 578.008H2143.38L2154.99 557.922L2168.06 563.488L2155.6 578.008ZM2199.48 669V586.72H2212.79C2219.16 595.029 2225.21 603.821 2230.94 613.098C2236.66 622.294 2241.87 631.772 2246.55 641.533L2245.46 616.97V586.72H2259.37V669H2246.06C2240.9 658.836 2235.54 648.632 2229.97 638.387C2224.48 628.062 2218.64 618.341 2212.42 609.226L2213.39 637.54V669H2199.48Z" fill="#F0F0F0"/>
</svg>
