<svg width="594" height="594" viewBox="0 0 594 594" fill="none" xmlns="http://www.w3.org/2000/svg">
<path d="M257.695 258.71H338.336V365.715H257.695L257.695 258.71Z" fill="#13181C"/>
<path d="M237.534 439.765C237.534 403.321 263.122 389.752 282.895 379.672H312.748V394.792C312.748 400.995 303.643 406.396 299.954 407.586C287.935 411.463 271.767 423.359 272.815 439.765C273.791 455.047 284.641 468.067 299.954 468.067C335.622 468.067 326.7 436.113 346.865 418.829C352.293 414.177 361.598 414.952 361.598 421.155V439.765C361.598 468.067 333.999 501.409 299.954 501.409C265.909 501.409 237.534 476.209 237.534 439.765Z" fill="#13181C"/>
<path fill-rule="evenodd" clip-rule="evenodd" d="M122 92L122 444.03L184.807 484.35V202.882L298.015 279.646L413.549 202.882V484.35L471.704 444.03V92L298.015 207.534L122 92Z" fill="#D9D9D9"/>
<path fill-rule="evenodd" clip-rule="evenodd" d="M122 92L122 444.03L184.807 484.35V202.882L298.015 279.646L413.549 202.882V484.35L471.704 444.03V92L298.015 207.534L122 92Z" fill="#931B1E"/>
<path fill-rule="evenodd" clip-rule="evenodd" d="M122 92L122 444.03L184.807 484.35V202.882L298.015 279.646L413.549 202.882V484.35L471.704 444.03V92L298.015 207.534L122 92Z" stroke="#931B1E" stroke-width="30"/>
<path d="M337.293 306.009C345.577 306.009 352.293 312.725 352.293 321.009V350.584C352.293 354.563 350.713 358.378 347.899 361.191L333.813 375.279C331 378.092 327.183 379.672 323.205 379.672H273.18C269.452 379.672 265.858 378.284 263.098 375.779L247.105 361.262C243.972 358.419 242.187 354.385 242.187 350.155V321.009C242.187 312.725 248.902 306.009 257.187 306.009H337.293ZM298.015 323.843C289.45 323.843 282.507 330.786 282.507 339.351C282.507 347.916 289.45 354.859 298.015 354.859C306.58 354.859 313.524 347.916 313.524 339.351C313.523 330.786 306.579 323.843 298.015 323.843Z" fill="#30393E"/>
</svg>
